<?xml version="1.0" encoding="UTF-8"?>
<svg version="1.1" xmlns="http://www.w3.org/2000/svg" width="1080" height="1080">
<path d="M0 0 C356.4 0 712.8 0 1080 0 C1080 356.4 1080 712.8 1080 1080 C723.6 1080 367.2 1080 0 1080 C0 723.6 0 367.2 0 0 Z " fill="#89BBFE" transform="translate(0,0)"/>
<path d="M0 0 C2.4521564 0.29941322 4.8735732 0.43427767 7.33984375 0.55859375 C10 1 10 1 13.23046875 2.46875 C17.50591829 4.40728625 21.73711536 4.70545053 26.375 5.0625 C29.27796721 5.2933659 32.11159018 5.59800482 35 6 C35.33 6.66 35.66 7.32 36 8 C38.09508223 8.39085466 38.09508223 8.39085466 40.5 8.5 C42.96875 8.65625 42.96875 8.65625 45 9 C45.33 9.66 45.66 10.32 46 11 C48.17529744 11.37189617 50.36746272 11.64688372 52.5625 11.875 C59.39819918 12.75297971 64.97706791 13.97706791 70 19 C71.010625 19.165 72.02125 19.33 73.0625 19.5 C74.031875 19.665 75.00125 19.83 76 20 C76.33 20.66 76.66 21.32 77 22 C79.52733235 22.65555119 79.52733235 22.65555119 82 23 C82 23.66 82 24.32 82 25 C83.65 25 85.3 25 87 25 C87 25.66 87 26.32 87 27 C87.86109375 27.10441406 88.7221875 27.20882812 89.609375 27.31640625 C93.232983 28.04697238 95.96891385 29.25161528 99.25 30.9375 C100.28640625 31.46214844 101.3228125 31.98679687 102.390625 32.52734375 C105 34 105 34 107 36 C108.27519326 36.50234886 109.56991875 36.95638903 110.875 37.375 C114.51045372 38.67151486 116.30380294 40.21954678 119 43 C121.0652017 44.08351805 123.15246266 45.04735399 125.29296875 45.97265625 C127 47 127 47 128 50 C129.258125 49.938125 130.51625 49.87625 131.8125 49.8125 C135.77678571 49.8125 135.77678571 49.8125 137.5625 51.3125 C138.036875 51.869375 138.51125 52.42625 139 53 C141.28727701 54.14881334 143.61660274 55.05563505 146 56 C146 56.66 146 57.32 146 58 C147.96498322 59.38442 149.97048465 60.71203834 152 62 C152.70125 62.53625 153.4025 63.0725 154.125 63.625 C155.97826775 65.07037795 155.97826775 65.07037795 158.1875 66.0625 C160 67 160 67 161 69 C161.804375 69.45375 162.60875 69.9075 163.4375 70.375 C166.22541216 72.1429443 166.58395632 73.16791265 168 76 C169.94603274 76.59070014 169.94603274 76.59070014 172 77 C173.75 78.4375 173.75 78.4375 175 80 C175 80.66 175 81.32 175 82 C175.598125 82.04125 176.19625 82.0825 176.8125 82.125 C180.07563511 83.43025405 180.49480805 85.92689977 182 89 C183.32996362 89.67336393 184.66375342 90.33919193 186 91 C187.921875 92.875 187.921875 92.875 189.75 95 C190.36359375 95.70125 190.9771875 96.4025 191.609375 97.125 C193 99 193 99 193 101 C193.66 101 194.32 101 195 101 C195.474375 101.639375 195.94875 102.27875 196.4375 102.9375 C197.9091365 105.28372963 197.9091365 105.28372963 201 106 C204 109.44444444 204 109.44444444 204 112 C204.59554687 112.24621094 205.19109375 112.49242187 205.8046875 112.74609375 C208.3532367 114.20175975 209.46165672 115.66327972 211.125 118.0625 C213.11074647 121.04627522 213.11074647 121.04627522 216 123 C217.03435556 124.64556566 218.02763513 126.3170608 219 128 C221.3741927 132.16292572 221.3741927 132.16292572 225 135 C226.98128683 137.93230451 228.35389319 140.51102321 229 144 C230.32 144 231.64 144 233 144 C233.4125 145.093125 233.825 146.18625 234.25 147.3125 C235.30826634 149.81839483 235.74970657 150.82010159 238 152.4375 C240.29813129 154.23291507 240.50568279 155.10227575 241.375 157.8125 C242.69462536 161.78595756 244.58618204 163.89823492 247.63671875 166.69140625 C249.31233027 168.29980126 250.2434724 169.80606995 251 172 C251 172.99 251 173.98 251 175 C251.66 175 252.32 175 253 175 C253.2475 175.639375 253.495 176.27875 253.75 176.9375 C254.1625 177.948125 254.575 178.95875 255 180 C255.30292969 180.75925781 255.60585938 181.51851562 255.91796875 182.30078125 C256.42263672 183.51314453 256.42263672 183.51314453 256.9375 184.75 C257.25589844 185.52859375 257.57429687 186.3071875 257.90234375 187.109375 C258.91896309 189.34057604 258.91896309 189.34057604 262 190 C263.95542188 192.98459129 264 194.26414791 264 198 C264.99 198 265.98 198 267 198 C267.26554688 198.84304688 267.53109375 199.68609375 267.8046875 200.5546875 C268.15789063 201.65039062 268.51109375 202.74609375 268.875 203.875 C269.22304688 204.96554687 269.57109375 206.05609375 269.9296875 207.1796875 C270.81175231 210.08522723 270.81175231 210.08522723 273 212 C273.51445096 213.75535191 273.96492353 215.52987345 274.375 217.3125 C275.51537357 221.75762963 276.75336941 224.64514839 280 228 C281.170702 230.34140401 281.20548522 232.01770122 281.375 234.625 C281.74602441 238.63206368 282.55786544 241.94543909 284.12109375 245.68359375 C285.25643428 248.6758468 286.04441242 251.72217616 286.875 254.8125 C288.14560375 259.39942859 289.61926441 263.5895205 291.6875 267.875 C293.87449409 272.40901214 294.56990453 276.01089258 295 281 C295.6590841 282.66967972 296.32650839 284.33607955 297 286 C297.56717493 288.62215656 298.06247817 291.24987803 298.53515625 293.890625 C298.79616785 295.97562253 298.79616785 295.97562253 300 297 C300.37322245 299.30639814 300.69891805 301.62058027 301 303.9375 C301.48112322 308.62307486 301.48112322 308.62307486 303 313 C303 316.3 303 319.6 303 323 C68.37 323 -166.26 323 -408 323 C-408 317.32772685 -407.94387823 314.32347218 -406.53466797 309.24560547 C-405.18938528 303.59541819 -404.8404587 297.69899579 -404.23242188 291.93164062 C-403.29456341 283.74999133 -402.03484205 276.63683725 -397 270 C-396.27954633 266.84881675 -396.27954633 266.84881675 -396 264 C-395.34 264 -394.68 264 -394 264 C-393.67 260.7 -393.34 257.4 -393 254 C-392.34 254 -391.68 254 -391 254 C-391.12375 252.515 -391.12375 252.515 -391.25 251 C-391.25 247.2232829 -389.97010337 244.74030186 -388.14453125 241.4375 C-386.17134652 237.23522263 -385.1567117 232.74070537 -383.9375 228.2734375 C-382.89522465 224.63415939 -381.60585014 221.42115898 -380 218 C-377.94418745 213.24169912 -377.94418745 213.24169912 -376 208.4375 C-374.81323568 205.54476197 -373.42365572 202.78259982 -372 200 C-371.01 200 -370.02 200 -369 200 C-369 198.35 -369 196.7 -369 195 C-368.01 194.67 -367.02 194.34 -366 194 C-365.9175 193.154375 -365.835 192.30875 -365.75 191.4375 C-364.83183524 187.22924485 -363.3367245 184.6113015 -361 181 C-360.34 180.67 -359.68 180.34 -359 180 C-357.9316809 177.67756717 -356.94972648 175.36966067 -356 173 C-355.44087588 171.68605833 -354.87854262 170.37347607 -354.3125 169.0625 C-353.879375 168.051875 -353.44625 167.04125 -353 166 C-352.01 166 -351.02 166 -350 166 C-349.9175 165.278125 -349.835 164.55625 -349.75 163.8125 C-348.84092732 160.40347744 -347.272193 158.67316824 -345 156 C-343.96210419 154.35666496 -342.96432076 152.68756133 -342 151 C-341.46826172 150.07380859 -341.46826172 150.07380859 -340.92578125 149.12890625 C-339.94666985 147.42147338 -338.9729076 145.71097544 -338 144 C-337.01 144 -336.02 144 -335 144 C-334.62875 142.6696875 -334.62875 142.6696875 -334.25 141.3125 C-332.95035375 137.86843744 -331.51270773 135.66975197 -329 133 C-328.34 133 -327.68 133 -327 133 C-326.938125 132.278125 -326.87625 131.55625 -326.8125 130.8125 C-325.73265773 127.07458444 -323.81445386 125.6920863 -321 123 C-319.13982944 120.62778248 -317.33722063 118.22110032 -315.55078125 115.79296875 C-315.03902344 115.20128906 -314.52726562 114.60960937 -314 114 C-313.34 114 -312.68 114 -312 114 C-311.77054687 113.44183594 -311.54109375 112.88367188 -311.3046875 112.30859375 C-309.64624479 109.37404392 -307.55108478 107.39859647 -305.125 105.0625 C-301.8101066 101.86140145 -298.83685024 98.63020666 -296 95 C-293.375 92.1875 -293.375 92.1875 -291 90 C-290.34 90 -289.68 90 -289 90 C-289 89.34 -289 88.68 -289 88 C-288.01 88 -287.02 88 -286 88 C-285.79375 87.4225 -285.5875 86.845 -285.375 86.25 C-283.49800315 83.17855061 -281.00679355 81.94557229 -278 80 C-276.31183067 78.35511706 -274.64646685 76.68662458 -273 75 C-269.21293872 71.53654442 -265.48327693 68.52902801 -261 66 C-254.11056458 61.55278527 -254.11056458 61.55278527 -248.1875 55.9375 C-245.59736871 53.64338371 -243.25101089 52.88367779 -240.015625 51.78125 C-237.04295867 50.62905375 -234.60783239 48.81414427 -232 47 C-230.989375 46.525625 -229.97875 46.05125 -228.9375 45.5625 C-225.87334498 44.12376192 -225.87334498 44.12376192 -223.5625 41.5 C-220.59594879 38.6058037 -217.83539224 37.49154143 -214 36 C-213.01 35.34 -212.02 34.68 -211 34 C-209.68 34 -208.36 34 -207 34 C-206.67 33.01 -206.34 32.02 -206 31 C-199.11223681 27.04591372 -191.02414424 23 -183 23 C-183 22.34 -183 21.68 -183 21 C-177.63958858 19.06733466 -172.65704047 17.80814864 -167 17 C-166.34 16.34 -165.68 15.68 -165 15 C-163.08231087 14.33562661 -161.13972519 13.74224356 -159.1875 13.1875 C-154.53059284 11.81601525 -150.05690224 10.27059772 -145.5625 8.4375 C-139.92546608 6.21664447 -134.36355338 4.84995595 -128.42578125 3.6875 C-125.12175965 3.02443523 -121.88454146 2.22781085 -118.625 1.375 C-115.21908432 0.4973742 -111.9355589 -0.19931356 -108.4375 -0.5625 C-104.88442426 -0.75550884 -104.88442426 -0.75550884 -102 -3 C-98.88918229 -3.33107096 -95.8716729 -3.52283031 -92.75 -3.625 C-91.23394165 -3.67974487 -91.23394165 -3.67974487 -89.68725586 -3.7355957 C-16.72545932 -5.95601386 -16.72545932 -5.95601386 0 0 Z " fill="#5694FE" transform="translate(594,757)"/>
<path d="M0 0 C4.92552258 -0.0499429 9.85089336 -0.0859729 14.77661133 -0.10986328 C16.44753593 -0.11983703 18.11844347 -0.1334209 19.78930664 -0.15087891 C28.26397413 -0.23712216 36.37919583 -0.28184216 44.70385742 1.52783203 C49.35311928 2.48388439 54.08082851 2.46232904 58.8125 2.65625 C62 3 62 3 65 5 C67.33247761 5.33926947 69.66585471 5.67240066 72 6 C73.33333333 6.66666667 74.66666667 7.33333333 76 8 C77.175625 8.165 78.35125 8.33 79.5625 8.5 C83 9 83 9 86 11 C87.6130223 11.46086351 89.24063757 11.87172027 90.875 12.25 C96.61965166 13.73568577 101.71043854 16.08380048 107.046875 18.64453125 C110.35702828 20.16387409 113.47720161 21.1193004 117 22 C123.56678558 24.24231703 128.20666488 28.0868315 133 33 C134.07391959 33.90709713 135.15738929 34.80300562 136.25 35.6875 C139 38 139 38 140 40 C140.66 40.28875 141.32 40.5775 142 40.875 C142.66 41.24625 143.32 41.6175 144 42 C144.11988281 42.65613281 144.23976563 43.31226563 144.36328125 43.98828125 C144.57339844 44.65214844 144.78351563 45.31601562 145 46 C146.89182657 46.88626693 146.89182657 46.88626693 149.1875 47.3125 C153.85744203 48.6435822 155.95641553 50.62490303 158.80859375 54.4765625 C159.94128108 56.14941421 159.94128108 56.14941421 162 57 C162.45375 57.804375 162.9075 58.60875 163.375 59.4375 C164.74725665 62.08856572 164.74725665 62.08856572 167 63 C169.81297336 64.40648668 170.45373351 66.26429774 172 69 C174.41408474 72.35437741 176.91480235 75.64984501 179.50390625 78.87109375 C181.96096481 82.36743035 183.592957 86.26497494 185.40234375 90.125 C186.98706317 92.97672003 188.6231474 94.79813042 191 97 C193.06750712 99.94222167 194.07343148 102.25916993 195.0625 105.75 C195.371875 106.8225 195.68125 107.895 196 109 C196.66 109.33 197.32 109.66 198 110 C198.75227269 112.62707728 199.40717241 115.21190731 200 117.875 C201.27642676 123.709153 201.27642676 123.709153 204 129 C205.62805511 133.27364465 206.58452199 137.56874043 207.4375 142.046875 C207.89092797 144.21345843 207.89092797 144.21345843 210 146 C210.37890625 147.91015625 210.37890625 147.91015625 210.5625 150.0625 C210.55913448 153.76736617 210.55913448 153.76736617 212 155 C212.39454223 156.84599688 212.74176866 158.70225822 213.0625 160.5625 C213.23910156 161.57441406 213.41570312 162.58632813 213.59765625 163.62890625 C213.73042969 164.41136719 213.86320312 165.19382812 214 166 C214.66 166 215.32 166 216 166 C216.13277344 166.78246094 216.26554687 167.56492187 216.40234375 168.37109375 C216.57894531 169.38300781 216.75554687 170.39492188 216.9375 171.4375 C217.11152344 172.44683594 217.28554688 173.45617187 217.46484375 174.49609375 C217.74751097 176.9287438 217.74751097 176.9287438 219 178 C219.07226502 179.85287502 219.0838122 181.70833878 219.0625 183.5625 C219.05347656 184.57441406 219.04445313 185.58632813 219.03515625 186.62890625 C219.01775391 187.80259766 219.01775391 187.80259766 219 189 C219.66 189 220.32 189 221 189 C222.69450692 202.68766758 223.35127113 216.32798314 223.65795898 230.10546875 C223.68241592 231.11844528 223.68241592 231.11844528 223.70736694 232.15188599 C223.75114875 234.00074163 223.78898237 235.8497354 223.82641602 237.69873047 C223.92945738 240.94178869 223.92945738 240.94178869 224.50708008 243.86547852 C225.14820715 247.94246242 225.14271628 251.91485336 225.1328125 256.03515625 C225.13422241 256.90320389 225.13563232 257.77125153 225.13708496 258.66560364 C225.13920927 261.46461137 225.132959 264.26350389 225.125 267.0625 C225.12267365 268.48287567 225.12267365 268.48287567 225.12030029 269.9319458 C225.07889994 291.33410718 225.07889994 291.33410718 224.625 301.875 C224.57883545 303.08168335 224.57883545 303.08168335 224.53173828 304.31274414 C224.32828958 308.08076602 223.7754883 310.70458611 222 314 C221.56201462 316.23859193 221.19126072 318.49099487 220.875 320.75 C220.70742188 321.92046875 220.53984375 323.0909375 220.3671875 324.296875 C220.24601562 325.18890625 220.12484375 326.0809375 220 327 C219.34 327 218.68 327 218 327 C218.0825 328.2375 218.165 329.475 218.25 330.75 C218.25 336.96038185 216.11499491 342.23378077 214 348 C213.24309937 350.24768802 212.49283317 352.49762372 211.75 354.75 C211.16666667 356.5 210.58333333 358.25 210 360 C209.34 360 208.68 360 208 360 C206.78738608 362.40133398 205.61010172 364.81515258 204.44921875 367.2421875 C203.86217211 368.45321855 203.27492757 369.66415368 202.6875 370.875 C202.40455078 371.47441406 202.12160156 372.07382812 201.83007812 372.69140625 C200.27590911 375.86866529 198.64199068 378.56825887 196.33203125 381.2578125 C193.84828145 383.83232738 193.84828145 383.83232738 193 387 C191.66666667 388.33333333 190.33333333 389.66666667 189 391 C188.00871227 392.34531906 187.03049328 393.7003239 186.0625 395.0625 C183.66294734 398.33626154 181.54934332 399.99780633 178 402 C177.31292969 402.8971875 176.62585938 403.794375 175.91796875 404.71875 C172.59133693 408.81316081 168.37171436 411.21883486 163.875 413.875 C163.06417969 414.37257813 162.25335937 414.87015625 161.41796875 415.3828125 C155.40588513 419 155.40588513 419 152 419 C151.78601563 419.63421875 151.57203125 420.2684375 151.3515625 420.921875 C150 423 150 423 147.3984375 423.828125 C145.90183594 424.03695312 145.90183594 424.03695312 144.375 424.25 C143.37210938 424.39953125 142.36921875 424.5490625 141.3359375 424.703125 C140.56507813 424.80109375 139.79421875 424.8990625 139 425 C139 425.66 139 426.32 139 427 C135.18687152 429.6916201 130.75722672 432 126 432 C126 432.66 126 433.32 126 434 C124.88625 434.12375 123.7725 434.2475 122.625 434.375 C118.96896323 434.6465813 118.96896323 434.6465813 117 437 C114.48397239 437.42325698 112.03331254 437.74606207 109.5 438 C99.01891274 438.35253859 99.01891274 438.35253859 90 442 C86.90727408 442.25595802 83.8417115 442.43014973 80.7421875 442.5546875 C79.18575027 442.61775589 79.18575027 442.61775589 77.59786987 442.68209839 C60.78377187 443.27072697 43.95082716 443.14980135 27.12890625 443.13037109 C22.06956786 443.12458793 17.01028153 443.12802141 11.9509449 443.13394356 C8.03231405 443.13754304 4.11369576 443.13641492 0.19506454 443.13381577 C-1.67331066 443.13314923 -3.54168701 443.13396539 -5.41006088 443.13629532 C-7.99589883 443.13882094 -10.58164911 443.13498653 -13.16748047 443.12939453 C-13.93609909 443.13141876 -14.70471771 443.13344299 -15.49662781 443.13552856 C-20.77143421 443.1142829 -20.77143421 443.1142829 -23 442 C-24.95643473 441.77760311 -26.91897725 441.60784146 -28.8828125 441.46484375 C-30.04941406 441.37783203 -31.21601563 441.29082031 -32.41796875 441.20117188 C-33.64128906 441.11416016 -34.86460937 441.02714844 -36.125 440.9375 C-37.35605469 440.84662109 -38.58710938 440.75574219 -39.85546875 440.66210938 C-42.90339115 440.43764997 -45.95154703 440.21711458 -49 440 C-49 439.34 -49 438.68 -49 438 C-49.87140625 438.03480469 -50.7428125 438.06960938 -51.640625 438.10546875 C-58.85622051 438.26945956 -65.08567624 437.77364867 -72.0234375 435.80078125 C-76.94462077 434.47684087 -81.96565608 433.75872205 -87 433 C-87 432.01 -87 431.02 -87 430 C-87.72058594 429.86335938 -88.44117188 429.72671875 -89.18359375 429.5859375 C-91.85112091 429.03097346 -94.44443028 428.37764446 -97.0625 427.625 C-98.31740234 427.27308594 -98.31740234 427.27308594 -99.59765625 426.9140625 C-102.15401072 425.9414008 -103.8313341 424.64446596 -106 423 C-107.64710308 422.30578828 -109.31566643 421.66074653 -111 421.0625 C-114.94535351 419.55923392 -117.06354186 418.03771532 -120 415 C-122.32873375 414.31744011 -124.66182791 413.64949225 -127 413 C-127.66 412.01 -128.32 411.02 -129 410 C-131.0428512 409.13523477 -133.09200536 408.55401654 -135.22265625 407.94140625 C-137 407 -137 407 -137.62890625 404.96875 C-137.75136719 404.3190625 -137.87382812 403.669375 -138 403 C-139.88316159 401.89163577 -139.88316159 401.89163577 -142 401 C-143.75 399.5 -143.75 399.5 -145 398 C-145 397.34 -145 396.68 -145 396 C-145.556875 395.814375 -146.11375 395.62875 -146.6875 395.4375 C-150.85370944 392.84769413 -153.55170049 388.87470704 -154.6875 384.125 C-154.790625 383.42375 -154.89375 382.7225 -155 382 C-155.66 381.67 -156.32 381.34 -157 381 C-157 379.68 -157 378.36 -157 377 C-157.99 377 -158.98 377 -160 377 C-160.28875 376.05125 -160.5775 375.1025 -160.875 374.125 C-161.76825109 370.94788422 -161.76825109 370.94788422 -164 369 C-164.81640625 367.16015625 -164.81640625 367.16015625 -165.5625 365.0625 C-165.81128906 364.37285156 -166.06007813 363.68320312 -166.31640625 362.97265625 C-166.88940471 361.31914641 -167.44660846 359.66017463 -168 358 C-168.99 357.67 -169.98 357.34 -171 357 C-171.33 355.02 -171.66 353.04 -172 351 C-172.66 351 -173.32 351 -174 351 C-175.21224026 347.36327923 -175.31354987 343.99080495 -175.5234375 340.1796875 C-175.93180832 337.45498382 -176.53134949 335.29545732 -177.4375 332.71875 C-179.0561092 328.06488442 -179.9346148 323.49480339 -180.625 318.625 C-180.81328369 317.34810303 -180.81328369 317.34810303 -181.00537109 316.04541016 C-181.98382237 309.01788097 -182.46590911 302.00518855 -182.70947266 294.91650391 C-182.75089323 290.82614156 -182.75089323 290.82614156 -184 287 C-184.09978326 284.48019029 -184.13959835 281.98880353 -184.1328125 279.46875 C-184.13417709 278.69726624 -184.13554169 277.92578247 -184.13694763 277.13092041 C-184.13898944 274.58723799 -184.13261738 272.04367075 -184.125 269.5 C-184.12378143 268.63540161 -184.12256287 267.77080322 -184.12130737 266.88000488 C-184.10032691 254.16555019 -183.92280882 241.45932807 -183.5625 228.75 C-183.5429425 228.0185376 -183.52338501 227.2870752 -183.50323486 226.53344727 C-183.44655341 224.47520566 -183.38297542 222.41731798 -183.31640625 220.359375 C-183.27974854 219.19889648 -183.24309082 218.03841797 -183.20532227 216.84277344 C-183 214 -183 214 -182 211 C-181.34 211 -180.68 211 -180 211 C-180.01160156 210.2265625 -180.02320313 209.453125 -180.03515625 208.65625 C-180.08702652 202.66893889 -180.00347599 196.90935863 -179 191 C-178.67 190.67 -178.34 190.34 -178 190 C-177.62831518 187.839582 -177.30208609 185.67124378 -177 183.5 C-176.11111111 177.11111111 -176.11111111 177.11111111 -175 176 C-174.79162581 174.17093765 -174.63250341 172.33611866 -174.5 170.5 C-174.11111111 165.11111111 -174.11111111 165.11111111 -173 164 C-172.71778828 161.41977858 -172.55179803 158.83969815 -172.37890625 156.25 C-172.19134766 155.13625 -172.19134766 155.13625 -172 154 C-171.34 153.67 -170.68 153.34 -170 153 C-169.74280183 150.97456444 -169.49157878 148.94649776 -169.34375 146.91015625 C-169 145 -169 145 -167 143 C-166.16470463 140.37981032 -165.40527819 137.77708592 -164.6875 135.125 C-162.63330279 127.80745679 -160.13912135 120.9327829 -157 114 C-156.34 114 -155.68 114 -155 114 C-154.9175 112.824375 -154.835 111.64875 -154.75 110.4375 C-154.19372745 105.82371 -152.45340486 102.91011399 -150 99 C-149.505 97.515 -149.505 97.515 -149 96 C-147.8553125 94.948125 -147.8553125 94.948125 -146.6875 93.875 C-144.19848055 91.21232803 -143.3545914 89.7682312 -142.0625 86.5 C-140.23596308 82.011304 -137.76872788 80.06209141 -134 77 C-132.81756343 75.00290813 -131.86623632 73.00112086 -130.95703125 70.8671875 C-129.90520921 68.81506124 -128.65365046 67.58768036 -127 66 C-126.566875 65.195625 -126.13375 64.39125 -125.6875 63.5625 C-123.59172022 60.3800196 -121.1621643 59.10810953 -118 57 C-116.34207549 55.1892172 -114.80839224 53.32471695 -113.296875 51.390625 C-112.86890625 50.93171875 -112.4409375 50.4728125 -112 50 C-111.34 50 -110.68 50 -110 50 C-110 48.68 -110 47.36 -110 46 C-107.90237882 44.22276476 -105.90955491 42.74726214 -103.625 41.25 C-102.33414253 40.37242617 -101.04509051 39.49219104 -99.7578125 38.609375 C-99.11875977 38.17302734 -98.47970703 37.73667969 -97.82128906 37.28710938 C-94.47787568 34.92431107 -91.38424754 32.25970563 -88.28125 29.59375 C-84.27133217 26.79230056 -79.76026853 25.84004739 -75 25 C-74.505 23.515 -74.505 23.515 -74 22 C-72.39092625 20.99432891 -70.76981454 20.0028319 -69.09375 19.11328125 C-67.63467136 18.33746518 -66.19804855 17.51854675 -64.78125 16.66796875 C-60.07384673 13.8709329 -56.50579162 12.61175462 -51 12 C-48.65175298 11.0355414 -46.31808364 10.03485877 -44 9 C-30.19159918 4.74998921 -14.49872806 2 0 2 C0 1.34 0 0.68 0 0 Z " fill="#5694FE" transform="translate(521,241)"/>
<path d="M0 0 C0 3.63695628 -1.03498273 6.09328729 -2.3125 9.5 C-4.31137167 14.89702398 -5.97482186 20.29435322 -7.32421875 25.890625 C-8 28 -8 28 -10 30 C-10.45811675 31.97235333 -10.45811675 31.97235333 -10.625 34.125 C-10.74875 35.40375 -10.8725 36.6825 -11 38 C-12.485 38.495 -12.485 38.495 -14 39 C-13.98839844 39.71027344 -13.97679687 40.42054688 -13.96484375 41.15234375 C-13.95130859 42.53099609 -13.95130859 42.53099609 -13.9375 43.9375 C-13.92589844 44.85402344 -13.91429687 45.77054687 -13.90234375 46.71484375 C-14 49 -14 49 -15 50 C-15.18577936 51.70445187 -15.32329536 53.41426114 -15.4375 55.125 C-15.80629865 59.65595481 -16.66012476 63.64540548 -18 68 C-18.33859959 70.33257494 -18.6732039 72.66574212 -19 75 C-19.495 75.495 -19.495 75.495 -20 76 C-20.22623521 77.48437809 -20.39412965 78.97777425 -20.53515625 80.47265625 C-20.62216797 81.37177734 -20.70917969 82.27089844 -20.79882812 83.19726562 C-20.88583984 84.14279297 -20.97285156 85.08832031 -21.0625 86.0625 C-21.15337891 87.01189453 -21.24425781 87.96128906 -21.33789062 88.93945312 C-21.56256498 91.29262135 -21.78308182 93.64610619 -22 96 C-22.66 96 -23.32 96 -24 96 C-24.64651777 115.56232099 -25.10480018 135.1136425 -25.125 154.6875 C-25.12749756 155.54618683 -25.12999512 156.40487366 -25.13256836 157.2895813 C-25.13840165 159.71783602 -25.13700881 162.14596299 -25.1328125 164.57421875 C-25.13479645 165.29960846 -25.1367804 166.02499817 -25.13882446 166.77236938 C-25.17665868 170.51110489 -25.17665868 170.51110489 -24 174 C-23.83846092 176.79402776 -23.71974074 179.57862009 -23.625 182.375 C-23.29945205 190.54207573 -22.32157066 198.46222207 -20.84033203 206.49951172 C-20.70353027 207.29244629 -20.56672852 208.08538086 -20.42578125 208.90234375 C-20.29598877 209.59835693 -20.16619629 210.29437012 -20.0324707 211.01147461 C-19.9921411 213.48128394 -20.76144334 214.89607367 -22 217 C-23.32594359 211.03325384 -23.0884587 205.07416385 -23 199 C-23.66 199 -24.32 199 -25 199 C-26.12473719 196.75052562 -26.17993806 195.35876204 -26.28125 192.859375 C-26.31863281 192.03566406 -26.35601562 191.21195313 -26.39453125 190.36328125 C-26.42933594 189.50089844 -26.46414063 188.63851562 -26.5 187.75 C-26.56956915 186.05715078 -26.64241381 184.36443257 -26.71875 182.671875 C-26.74904297 181.9200293 -26.77933594 181.16818359 -26.81054688 180.39355469 C-26.96289664 177.93295097 -26.96289664 177.93295097 -27.50927734 175.27612305 C-28.1302773 171.13025317 -28.14311958 167.0957788 -28.1328125 162.91015625 C-28.13376923 162.04740585 -28.13472595 161.18465546 -28.13571167 160.29576111 C-28.13638972 158.47785367 -28.13456167 156.65994375 -28.13037109 154.84204102 C-28.12502411 152.07497661 -28.13032547 149.30807498 -28.13671875 146.54101562 C-28.13605777 144.76822881 -28.13477621 142.9954421 -28.1328125 141.22265625 C-28.13483673 140.4026564 -28.13686096 139.58265656 -28.13894653 138.73780823 C-28.12005953 134.05862761 -27.70321519 129.63607396 -27 125 C-26.8829098 122.76458174 -26.80167669 120.52703545 -26.75390625 118.2890625 C-26.70459961 116.42121094 -26.70459961 116.42121094 -26.65429688 114.515625 C-26.5932853 111.92977259 -26.53597073 109.34383021 -26.48242188 106.7578125 C-26.31395186 100.60388893 -25.99438398 94.85613061 -24.45678711 88.88671875 C-23.56817925 85.21640258 -23.54018734 81.45608292 -23.34375 77.69921875 C-22.9964609 74.97221002 -22.22747533 73.41659206 -21 71 C-20.6456169 68.37837045 -20.49837103 65.78468534 -20.34375 63.14453125 C-20.2303125 62.43683594 -20.116875 61.72914063 -20 61 C-19.01 60.505 -19.01 60.505 -18 60 C-17.58783455 57.62775884 -17.29373538 55.32897534 -17.0625 52.9375 C-16.14299218 44.52947447 -14.6537628 36.29086415 -13 28 C-11.68 27.67 -10.36 27.34 -9 27 C-8.855625 25.824375 -8.71125 24.64875 -8.5625 23.4375 C-8.46453125 22.70015625 -8.3665625 21.9628125 -8.265625 21.203125 C-8.04480923 19.37165307 -7.91675211 17.52928732 -7.8125 15.6875 C-6.64097991 10.37060115 -3.93030155 3.93030155 0 0 Z " fill="#6FAAFE" transform="translate(363,356)"/>
<path d="M0 0 C0.70382812 0.13277344 1.40765625 0.26554688 2.1328125 0.40234375 C10.07378645 1.82259627 17.94914043 2.54743689 26 3 C26 3.66 26 4.32 26 5 C27.05574219 4.98259766 27.05574219 4.98259766 28.1328125 4.96484375 C49.53846154 4.76923077 49.53846154 4.76923077 54 7 C56.62323918 7.12237754 59.22168732 7.18567754 61.84619141 7.20532227 C62.65602982 7.21522186 63.46586823 7.22512146 64.30024719 7.23532104 C66.98398896 7.26697399 69.66774845 7.29170844 72.3515625 7.31640625 C74.2095893 7.3369725 76.06761139 7.35796889 77.92562866 7.37937927 C82.82137235 7.4346339 87.71715851 7.48402821 92.61297607 7.53222656 C97.60660593 7.58241685 102.60017395 7.6381158 107.59375 7.69335938 C117.39578054 7.80098242 127.19786472 7.90241817 137 8 C136.67 8.66 136.34 9.32 136 10 C135.0795842 9.99777939 134.1591684 9.99555878 133.21086121 9.99327087 C124.54398776 9.9732479 115.87712207 9.95801559 107.21023083 9.94818783 C102.75432029 9.94296547 98.29842885 9.93587951 93.8425293 9.92456055 C89.5437177 9.91370875 85.24492447 9.90771828 80.94610023 9.90512276 C79.3046267 9.90327266 77.66315419 9.89965996 76.02168846 9.89426994 C73.72561836 9.88702912 71.42962457 9.88601035 69.13354492 9.88647461 C67.82560471 9.884254 66.51766449 9.88203339 65.17008972 9.87974548 C61.97492823 9.85278009 61.97492823 9.85278009 59 11 C57.3792221 10.60440029 55.77686277 10.13229295 54.1875 9.625 C47.19376081 7.73780054 40.31421229 7.5302678 33.09448242 7.37939453 C26.85296071 7.21736416 21.08374279 6.3724893 15 5 C13.6661759 4.73545926 12.33159227 4.47470361 10.99609375 4.21875 C9.23458984 3.86296875 9.23458984 3.86296875 7.4375 3.5 C6.23996094 3.2628125 5.04242188 3.025625 3.80859375 2.78125 C2.88175781 2.5234375 1.95492188 2.265625 1 2 C0.67 1.34 0.34 0.68 0 0 Z " fill="#6EABFE" transform="translate(446,676)"/>
<path d="M0 0 C0.9220372 -0.00622879 1.8440744 -0.01245758 2.79405212 -0.01887512 C4.28927147 -0.0050605 4.28927147 -0.0050605 5.81469727 0.0090332 C7.36375511 0.00828545 7.36375511 0.00828545 8.94410706 0.00752258 C11.1356091 0.00986562 13.3271137 0.01960756 15.51855469 0.03613281 C18.8369219 0.05950329 22.15447301 0.05672276 25.47290039 0.05004883 C27.60767072 0.05563358 29.7424377 0.06274844 31.87719727 0.0715332 C32.85579208 0.0706218 33.8343869 0.06971039 34.84263611 0.06877136 C40.96473392 0.13017236 46.76329514 0.78532351 52.7827301 1.90838623 C57.17265 2.67377692 61.54192345 2.82710552 65.99047852 3.02661133 C69.2560047 3.19053046 72.30873603 3.40466403 75.44360352 4.37231445 C75.44360352 5.03231445 75.44360352 5.69231445 75.44360352 6.37231445 C76.09586914 6.36071289 76.74813477 6.34911133 77.42016602 6.3371582 C82.21979492 6.28760451 86.72145036 6.37817695 91.44360352 7.37231445 C91.44360352 8.03231445 91.44360352 8.69231445 91.44360352 9.37231445 C92.30083008 9.34911133 93.15805664 9.3259082 94.04125977 9.30200195 C100.2473422 9.204048 105.60072571 9.19822039 111.44360352 11.37231445 C111.44360352 12.03231445 111.44360352 12.69231445 111.44360352 13.37231445 C114.08360352 13.70231445 116.72360352 14.03231445 119.44360352 14.37231445 C119.44360352 14.70231445 119.44360352 15.03231445 119.44360352 15.37231445 C116.47360352 15.37231445 113.50360352 15.37231445 110.44360352 15.37231445 C109.94860352 13.88731445 109.94860352 13.88731445 109.44360352 12.37231445 C108.81454102 12.38391602 108.18547852 12.39551758 107.53735352 12.4074707 C99.99883964 12.48694299 93.50279962 12.43034276 86.57250977 9.1340332 C82.63047789 7.72358143 78.46891881 7.35008881 74.33422852 6.80200195 C71.44360352 6.37231445 71.44360352 6.37231445 68.44360352 5.37231445 C51.19284004 3.06441705 33.74574063 3.11463576 16.38110352 3.24731445 C14.03800848 3.25738669 11.69490914 3.26650488 9.35180664 3.2746582 C3.71564206 3.29628419 -1.92035567 3.32941044 -7.55639648 3.37231445 C-5.16751744 0.46937093 -3.7221448 -0.00289286 0 0 Z " fill="#72ADFE" transform="translate(519.556396484375,750.627685546875)"/>
<path d="M0 0 C0.84908432 -0.00191345 1.69816864 -0.0038269 2.57298279 -0.00579834 C4.36237892 -0.00715556 6.15178506 -0.00349156 7.94116211 0.00488281 C10.67779647 0.01560229 13.4137764 0.00496508 16.15039062 -0.0078125 C17.89192853 -0.00649108 19.63346603 -0.00392906 21.375 0 C22.19174698 -0.00404846 23.00849396 -0.00809692 23.84999084 -0.01226807 C27.82649122 0.02052911 30.68934701 0.2276695 34.12109375 2.265625 C37.57573192 2.57647179 40.98901696 2.72780145 44.453125 2.83203125 C49.91991433 3.06444558 49.91991433 3.06444558 52.12109375 5.265625 C49.85054799 5.32077996 47.5795881 5.35892618 45.30859375 5.390625 C43.41173828 5.42542969 43.41173828 5.42542969 41.4765625 5.4609375 C38.29089581 5.41164997 35.39167397 4.9562814 32.27734375 4.296875 C24.07801755 2.69773325 15.75867504 2.79818198 7.43359375 2.640625 C5.74933071 2.60235735 4.0650854 2.56330084 2.38085938 2.5234375 C-1.70558177 2.42841055 -5.79211396 2.34403939 -9.87890625 2.265625 C-9.87890625 2.925625 -9.87890625 3.585625 -9.87890625 4.265625 C-13.57016785 5.49604553 -17.21780507 5.76477875 -21.06640625 6.140625 C-28.62531304 6.91735093 -35.98835434 8.1340494 -43.42578125 9.6796875 C-46.65857214 10.22823799 -49.60886874 10.37596369 -52.87890625 10.265625 C-50.0932451 7.47996385 -47.74930178 7.77321786 -43.87890625 7.265625 C-41.5377107 6.62711712 -39.20438632 5.95918923 -36.87890625 5.265625 C-35.44293106 4.90532577 -34.00539724 4.55118419 -32.56640625 4.203125 C-29.08490572 3.45739123 -29.08490572 3.45739123 -26.87890625 2.265625 C-23.62838245 2.23458316 -20.38982033 2.33315881 -17.140625 2.42578125 C-13.9788484 2.47465938 -13.9788484 2.47465938 -11.72998047 1.2722168 C-7.78620198 -0.12016193 -4.15208483 -0.02063224 0 0 Z " fill="#70ACFE" transform="translate(530.87890625,238.734375)"/>
<path d="M0 0 C1.21744727 3.65234182 0.64202228 4.62953322 -1 8 C-1.66 8.66 -2.32 9.32 -3 10 C-3 11.32 -3 12.64 -3 14 C-4.30973998 15.3565164 -5.64802142 16.68557638 -7 18 C-9.0556563 21.19429121 -10.77973616 24.58590397 -12.5625 27.9375 C-13.036875 28.618125 -13.51125 29.29875 -14 30 C-14.99 30 -15.98 30 -17 30 C-17.185625 30.8353125 -17.185625 30.8353125 -17.375 31.6875 C-19.10767621 38.09840199 -22.07991972 41.54176006 -26.75 46.125 C-27.66265625 47.05505859 -27.66265625 47.05505859 -28.59375 48.00390625 C-36.64143145 56 -36.64143145 56 -42 56 C-42.33 56.99 -42.66 57.98 -43 59 C-44.48828125 60.203125 -44.48828125 60.203125 -46.3125 61.25 C-47.20388672 61.78367187 -47.20388672 61.78367187 -48.11328125 62.328125 C-50.4491564 63.15994803 -51.69274206 62.7945524 -54 62 C-53.29875 61.56429687 -52.5975 61.12859375 -51.875 60.6796875 C-40.40514033 53.52629592 -40.40514033 53.52629592 -31 44 C-30.01 44 -29.02 44 -28 44 C-27.731875 43.42765625 -27.46375 42.8553125 -27.1875 42.265625 C-25.95867364 39.92115366 -24.57477824 37.87595062 -23 35.75 C-22.484375 35.04359375 -21.96875 34.3371875 -21.4375 33.609375 C-20.963125 33.07828125 -20.48875 32.5471875 -20 32 C-19.34 32 -18.68 32 -18 32 C-17.89429688 31.43152344 -17.78859375 30.86304688 -17.6796875 30.27734375 C-16.88999259 27.63141196 -15.70136127 25.82508819 -14.125 23.5625 C-13.58617187 22.77488281 -13.04734375 21.98726562 -12.4921875 21.17578125 C-11.99976563 20.45777344 -11.50734375 19.73976563 -11 19 C-9.39478109 16.47751314 -8.08545002 14.21896567 -7 11.4375 C-5.95990498 8.9022684 -4.81830987 7.0455986 -3 5 C-2.34 5 -1.68 5 -1 5 C-0.67 3.35 -0.34 1.7 0 0 Z " fill="#70AAFE" transform="translate(732,596)"/>
<path d="M0 0 C0.99 0.495 0.99 0.495 2 1 C2.02505615 1.71542969 2.0501123 2.43085938 2.07592773 3.16796875 C2.19279152 6.4454547 2.31510423 9.72271616 2.4375 13 C2.47681641 14.12535156 2.51613281 15.25070312 2.55664062 16.41015625 C2.75303436 21.57682211 3.04002784 26.63118297 3.75708008 31.75585938 C4.36738852 37.39400532 4.435439 43.08547132 4.625 48.75 C4.6765625 50.04421875 4.728125 51.3384375 4.78125 52.671875 C5.04874759 60.47651064 5.16744186 68.25510423 4 76 C3.505 76.495 3.505 76.495 3 77 C2.76298761 79.85877909 2.57780818 82.69883297 2.4375 85.5625 C2.39431641 86.36880859 2.35113281 87.17511719 2.30664062 88.00585938 C2.20024738 90.00368805 2.09959112 92.0018207 2 94 C1.67 94 1.34 94 1 94 C1.00222061 93.24911102 1.00444122 92.49822205 1.00672913 91.72457886 C1.02680197 84.63326806 1.04200975 77.54196717 1.05181217 70.45063591 C1.05702116 66.80529438 1.06408265 63.15997641 1.07543945 59.51464844 C1.086339 55.99388524 1.09229178 52.47314465 1.09487724 48.95236588 C1.09761236 46.96163436 1.10541313 44.97091188 1.11329651 42.98019409 C1.11337204 41.75938141 1.11344757 40.53856873 1.11352539 39.28076172 C1.115746 38.21042694 1.11796661 37.14009216 1.12025452 36.037323 C0.99788984 32.94670262 0.54221712 30.04176393 0 27 C-0.0777124 24.83708832 -0.10796236 22.67209527 -0.09765625 20.5078125 C-0.09443359 19.30898438 -0.09121094 18.11015625 -0.08789062 16.875 C-0.07951172 15.6375 -0.07113281 14.4 -0.0625 13.125 C-0.05798828 11.86429687 -0.05347656 10.60359375 -0.04882812 9.3046875 C-0.0370796 6.20307614 -0.02065167 3.10156275 0 0 Z " fill="#6CA8FD" transform="translate(744,455)"/>
<path d="M0 0 C0.66 0.33 1.32 0.66 2 1 C-3.43931624 4.79487179 -3.43931624 4.79487179 -6.5625 5.9375 C-9.22680142 6.92209111 -9.22680142 6.92209111 -11.5 9.5 C-14.08602209 12.08602209 -15.65749302 12.72666401 -19 14 C-20.09837667 14.79204549 -21.18042237 15.60697543 -22.25 16.4375 C-24.96960914 18.47423785 -27.36556031 19.55248846 -30.625 20.5 C-34.87586891 21.7774258 -37.08255203 23.5824181 -40 27 C-42.80629563 29.98168911 -45.44711015 31.96977723 -49 34 C-52.84395065 36.48255146 -56.46752194 39.09090042 -60 42 C-60.66 41.67 -61.32 41.34 -62 41 C-61.31292969 40.45730469 -60.62585938 39.91460938 -59.91796875 39.35546875 C-59.01691406 38.64003906 -58.11585938 37.92460938 -57.1875 37.1875 C-56.29417969 36.47980469 -55.40085937 35.77210938 -54.48046875 35.04296875 C-52.06947971 33.12481619 -52.06947971 33.12481619 -50.3046875 31.30078125 C-49 30 -49 30 -46.9375 29 C-44.66757845 28.02674942 -44.66757845 28.02674942 -43 25 C-42.21625 24.690625 -41.4325 24.38125 -40.625 24.0625 C-37.91042828 23.16239954 -37.91042828 23.16239954 -36.0625 21.0625 C-33.60109059 18.60109059 -31.12075291 17.52978084 -28 16 C-26.8625641 15.18372247 -25.73798364 14.34931553 -24.625 13.5 C-21.49563352 11.17552601 -18.44951367 9.99156617 -14.78125 8.75 C-12.28942676 7.70081127 -10.82793877 5.95400351 -9 4 C-6.5 2.875 -6.5 2.875 -4 2 C-3.278125 1.608125 -2.55625 1.21625 -1.8125 0.8125 C-1.214375 0.544375 -0.61625 0.27625 0 0 Z " fill="#71ACFE" transform="translate(381,791)"/>
<path d="M0 0 C1.89646998 0.11493757 3.79218332 0.24239642 5.6875 0.375 C6.74324219 0.44460937 7.79898438 0.51421875 8.88671875 0.5859375 C11.92970485 0.99065083 14.20787412 1.76692918 17 3 C19.33163378 3.67258667 21.6652039 4.33847444 24 5 C32.85777869 7.69658773 42.32350156 10.73291348 50 16 C50 16.66 50 17.32 50 18 C46.51634613 16.9281065 43.23166547 15.6687602 39.9375 14.125 C34.97801188 11.86143875 29.85307962 10.35083679 24.625 8.83203125 C22 8 22 8 21 7 C19.34080104 6.63128912 17.67225729 6.30404678 16 6 C11.11111111 5.11111111 11.11111111 5.11111111 10 4 C7.68717649 3.47071924 5.36278087 3.03666285 3.03125 2.59765625 C2.3609375 2.40042969 1.690625 2.20320312 1 2 C0.67 1.34 0.34 0.68 0 0 Z " fill="#6DA8FE" transform="translate(583,244)"/>
<path d="M0 0 C4 2 8 4 12 6 C12 6.66 12 7.32 12 8 C13.96498322 9.38442 15.97048465 10.71203834 18 12 C18.70125 12.53625 19.4025 13.0725 20.125 13.625 C21.97826775 15.07037795 21.97826775 15.07037795 24.1875 16.0625 C26 17 26 17 27 19 C27.804375 19.45375 28.60875 19.9075 29.4375 20.375 C32.22541216 22.1429443 32.58395632 23.16791265 34 26 C35.94603274 26.59070014 35.94603274 26.59070014 38 27 C39.75 28.4375 39.75 28.4375 41 30 C41 30.66 41 31.32 41 32 C41.928125 32.0928125 41.928125 32.0928125 42.875 32.1875 C45 33 45 33 46.25 35.5625 C46.4975 36.366875 46.745 37.17125 47 38 C46.01 37.34 45.02 36.68 44 36 C44 35.34 44 34.68 44 34 C42.68 34 41.36 34 40 34 C38.72005534 32.58877897 37.44867036 31.16490438 36.28515625 29.65625 C33.6480054 26.25761182 30.87512018 23.52507211 27.1875 21.3125 C26.465625 20.879375 25.74375 20.44625 25 20 C25 19.34 25 18.68 25 18 C23.02 17.67 21.04 17.34 19 17 C19 16.34 19 15.68 19 15 C18.41573242 14.72220703 17.83146484 14.44441406 17.22949219 14.15820312 C13.64946761 12.29840937 10.50009615 9.87766958 7.25 7.5 C6.55261719 7.00113281 5.85523438 6.50226562 5.13671875 5.98828125 C4.47800781 5.50746094 3.81929687 5.02664063 3.140625 4.53125 C2.53766602 4.09361328 1.93470703 3.65597656 1.31347656 3.20507812 C0.66330566 2.60856445 0.66330566 2.60856445 0 2 C0 1.34 0 0.68 0 0 Z " fill="#6EA8FE" transform="translate(728,807)"/>
<path d="M0 0 C0.33 0 0.66 0 1 0 C1 2.64 1 5.28 1 8 C0.34 8 -0.32 8 -1 8 C-0.96519531 8.80179688 -0.93039063 9.60359375 -0.89453125 10.4296875 C-0.65261515 20.5901635 -2.10418875 30.04699091 -4 40 C-4.66 40 -5.32 40 -6 40 C-6.33 42.97 -6.66 45.94 -7 49 C-7.33 49 -7.66 49 -8 49 C-8.17718068 44.03894108 -7.80280803 40.20315764 -6.53027344 35.36865234 C-5.25084916 29.65365496 -4.84569316 23.7486458 -4.23242188 17.93164062 C-3.50336849 11.57155616 -2.24612218 6.00008683 0 0 Z " fill="#6CA7FD" transform="translate(194,1031)"/>
<path d="M0 0 C0.66 0.33 1.32 0.66 2 1 C-0.74976397 3.10447526 -3.49985279 5.20852559 -6.25 7.3125 C-7.02730469 7.90740234 -7.80460937 8.50230469 -8.60546875 9.11523438 C-9.35957031 9.69208984 -10.11367188 10.26894531 -10.890625 10.86328125 C-11.58188477 11.39219971 -12.27314453 11.92111816 -12.98535156 12.46606445 C-13.98260254 13.22536255 -13.98260254 13.22536255 -15 14 C-15.70350586 14.55969482 -16.40701172 15.11938965 -17.13183594 15.69604492 C-19 17 -19 17 -21 17 C-21 18.32 -21 19.64 -21 21 C-22.62053812 22.38903267 -24.29705213 23.71332828 -26 25 C-26.825 26.010625 -27.65 27.02125 -28.5 28.0625 C-31 31 -31 31 -33.625 32.5625 C-36.49302937 34.29841251 -37.37413564 36.1177859 -39 39 C-39.99 39.66 -40.98 40.32 -42 41 C-39.65251946 35.91379216 -37.17850394 31.6106587 -32.4375 28.5 C-29.78165704 26.74064411 -29.0466625 26.093325 -27.5625 23.125 C-23.55391335 15.1078267 -14.12249371 10.05126409 -7 5 C-5.60406428 4.00014293 -4.20821354 3.00016719 -2.8125 2 C-1.4203125 1.01 -1.4203125 1.01 0 0 Z " fill="#76B0FE" transform="translate(432,270)"/>
<path d="M0 0 C0.89267578 0.00644531 1.78535156 0.01289062 2.70507812 0.01953125 C3.63384766 0.03628906 4.56261719 0.05304687 5.51953125 0.0703125 C6.45990234 0.07933594 7.40027344 0.08835937 8.36914062 0.09765625 C10.69036093 0.12122194 13.01106769 0.15412134 15.33203125 0.1953125 C13.33203125 2.1953125 13.33203125 2.1953125 9.41796875 2.390625 C7.84753774 2.37731626 6.27716904 2.35344852 4.70703125 2.3203125 C3.90523438 2.31128906 3.1034375 2.30226563 2.27734375 2.29296875 C0.29544602 2.26937473 -1.68629856 2.23350315 -3.66796875 2.1953125 C-3.66796875 2.8553125 -3.66796875 3.5153125 -3.66796875 4.1953125 C-4.58835937 4.30488281 -5.50875 4.41445313 -6.45703125 4.52734375 C-14.39263859 5.52131493 -22.05677651 6.83234268 -29.83984375 8.70703125 C-32.66796875 9.1953125 -32.66796875 9.1953125 -35.66796875 8.1953125 C-33.92628622 6.45362997 -31.4125311 6.61354084 -29.04296875 6.2578125 C-24.45175985 5.53059974 -20.13518028 4.48393121 -15.66796875 3.1953125 C-14.25388393 3.00799903 -12.83686102 2.84182855 -11.41796875 2.6953125 C-6.97893114 2.10344082 -4.54628328 -0.05791444 0 0 Z " fill="#6BA6FD" transform="translate(496.66796875,753.8046875)"/>
<path d="M0 0 C0.8125 1.625 0.8125 1.625 1 4 C-1.32724884 7.21707928 -3.71826672 9.73839053 -6.625 12.4375 C-9.3842826 15.4146207 -10.50104175 18.25260437 -12 22 C-13.5625 24.4375 -13.5625 24.4375 -15 26 C-15.66 26 -16.32 26 -17 26 C-17.0825 26.845625 -17.165 27.69125 -17.25 28.5625 C-17.90126016 31.54744238 -18.47554317 33.04383219 -20 35.5625 C-21.76131177 38.58975461 -22.58570434 40.58206079 -23 44 C-23.66 44 -24.32 44 -25 44 C-23.40501786 34.27060896 -19.04116063 26.45167036 -13.15234375 18.625 C-11.92587272 16.89546798 -10.93779931 15.11826331 -9.9375 13.25 C-8.08474967 10.14216073 -6.81383217 9.06347692 -4 7 C-3.27840576 5.35636866 -2.60648579 3.68949614 -2 2 C-1.34 1.34 -0.68 0.68 0 0 Z " fill="#75ADFE" transform="translate(389,311)"/>
<path d="M0 0 C0.66 0 1.32 0 2 0 C3.2890625 1.4609375 3.2890625 1.4609375 4.625 3.375 C5.29402344 4.31472656 5.29402344 4.31472656 5.9765625 5.2734375 C7 7 7 7 7 9 C7.66 9 8.32 9 9 9 C13 13.35294118 13 13.35294118 13 17 C13.66 17 14.32 17 15 17 C15 17.66 15 18.32 15 19 C15.99 19.33 16.98 19.66 18 20 C18 20.66 18 21.32 18 22 C18.66 22 19.32 22 20 22 C23 27.625 23 27.625 23 31 C19.64888166 28.76592111 18.18446044 27.73784176 17.1875 23.75 C17.125625 22.8425 17.06375 21.935 17 21 C15.68 21 14.36 21 13 21 C11.22779984 18.63706645 10.14350558 16.71752789 9.5625 13.8125 C9.376875 13.214375 9.19125 12.61625 9 12 C8.1028125 11.566875 8.1028125 11.566875 7.1875 11.125 C3.97218382 9.47140882 2.78703095 7.08108784 1 4 C0.25 1.625 0.25 1.625 0 0 Z " fill="#6FA9FE" transform="translate(810,880)"/>
<path d="M0 0 C-3.28231539 2.18821026 -6.53161455 3.26231556 -10.25 4.4375 C-18.72790358 6.66446698 -18.72790358 6.66446698 -26 11 C-28.68544346 11.56274765 -31.36253387 12.08061023 -34.0625 12.5625 C-35.20041992 12.77036133 -35.20041992 12.77036133 -36.36132812 12.98242188 C-38.24024975 13.32511827 -40.12004701 13.6630073 -42 14 C-39.24890406 11.11134926 -36.73701843 9.50918052 -33 8 C-30.6670134 7.95977609 -28.33293334 7.95679753 -26 8 C-23.79932579 7.06716704 -23.79932579 7.06716704 -22 6 C-21.01 6 -20.02 6 -19 6 C-19 5.34 -19 4.68 -19 4 C-12.44995746 1.30292366 -7.11513755 -0.53699151 0 0 Z " fill="#71AAFE" transform="translate(453,764)"/>
<path d="M0 0 C2.3125 -0.3125 2.3125 -0.3125 5 0 C6.5625 2.25 6.5625 2.25 8 5 C8.721875 5.721875 9.44375 6.44375 10.1875 7.1875 C10.785625 7.785625 11.38375 8.38375 12 9 C12 9.66 12 10.32 12 11 C12.66 11 13.32 11 14 11 C18.76744186 15.30232558 18.76744186 15.30232558 20 19 C20.66 19 21.32 19 22 19 C22 19.99 22 20.98 22 22 C22.66 22 23.32 22 24 22 C24.66 23.65 25.32 25.3 26 27 C26.66 27 27.32 27 28 27 C28 27.66 28 28.32 28 29 C24.68130359 27.6082886 23.09600576 26.13354851 21.0625 23.1875 C19.22609712 20.61279774 17.41956924 18.30256571 15.125 16.125 C14.42375 15.42375 13.7225 14.7225 13 14 C13 13.34 13 12.68 13 12 C12.38125 11.9175 11.7625 11.835 11.125 11.75 C9 11 9 11 7.75 8.9375 C7.37875 7.9784375 7.37875 7.9784375 7 7 C6.34 7 5.68 7 5 7 C3.7109375 5.46875 3.7109375 5.46875 2.375 3.5 C1.70597656 2.52546875 1.70597656 2.52546875 1.0234375 1.53125 C0.68570313 1.0259375 0.34796875 0.520625 0 0 Z " fill="#70ACFE" transform="translate(782,851)"/>
<path d="M0 0 C0.66 0 1.32 0 2 0 C5.70694087 8.2596401 5.70694087 8.2596401 7.1875 12 C7.83430303 13.96396038 7.83430303 13.96396038 9 15 C9.144375 16.03125 9.28875 17.0625 9.4375 18.125 C10.08027455 22.55300245 11.25333511 26.68533883 12.625 30.9375 C13.2338647 34.28625587 13.05664236 37.60145822 13 41 C12.67 41 12.34 41 12 41 C11.855625 39.865625 11.71125 38.73125 11.5625 37.5625 C11.38828522 34.19222799 11.38828522 34.19222799 10 33 C9.7746669 30.9720021 9.55232815 28.94325126 9.37890625 26.91015625 C9.13777773 24.7671052 9.13777773 24.7671052 7 23 C6.56158451 20.90909537 6.1260085 18.81754249 5.70703125 16.72265625 C4.60004668 12.45984827 2.80014789 8.52461213 1.0234375 4.50390625 C0 2 0 2 0 0 Z " fill="#72ABFE" transform="translate(721,362)"/>
<path d="M0 0 C4.43103188 6.64654782 6.59054513 13.02764074 6 21 C6.99 21.33 7.98 21.66 9 22 C9.66015625 23.890625 9.66015625 23.890625 10.0625 26.25 C10.58091712 29.01782023 11.10520536 31.25470771 12.1875 33.875 C13 36 13 36 12 39 C8.46945566 31.90997243 5.96962188 24.88395944 3.9140625 17.23828125 C3.15917905 14.56392921 2.30020674 12.06662675 1.25 9.5 C0.02096397 6.0586991 -0.27126292 3.61683896 0 0 Z " fill="#6FABFE" transform="translate(875,991)"/>
<path d="M0 0 C0.99 0.495 0.99 0.495 2 1 C2.5625 3.6171875 2.5625 3.6171875 3 6.875 C3.52302397 10.75098117 3.80266298 12.70399447 6 16 C6.42611021 18.34221366 6.77172722 20.6996657 7.0625 23.0625 C7.50975954 27.68563203 7.50975954 27.68563203 9 32 C9.06996014 33.70702735 9.08440154 35.41668003 9.0625 37.125 C9.05347656 38.03507812 9.04445313 38.94515625 9.03515625 39.8828125 C9.02355469 40.58148437 9.01195312 41.28015625 9 42 C8.34 42 7.68 42 7 42 C6.93941406 41.37351562 6.87882813 40.74703125 6.81640625 40.1015625 C6.73261719 39.28429688 6.64882813 38.46703125 6.5625 37.625 C6.48128906 36.81289062 6.40007813 36.00078125 6.31640625 35.1640625 C6.10909886 32.95727195 6.10909886 32.95727195 5 31 C4.92883618 28.62597499 4.91590915 26.24999323 4.9375 23.875 C4.94652344 22.59367187 4.95554687 21.31234375 4.96484375 19.9921875 C4.97644531 19.00476562 4.98804688 18.01734375 5 17 C4.34 17 3.68 17 3 17 C1.82877141 11.34853777 0.74660712 5.72398793 0 0 Z " fill="#6BA9FD" transform="translate(888,1038)"/>
<path d="M0 0 C3.61835228 2.99449844 4.89489195 5.84878077 6.2890625 10.1953125 C6.94418873 12.21000614 6.94418873 12.21000614 9 14 C9.125 16.625 9.125 16.625 9 19 C9.99 19 10.98 19 12 19 C12 20.32 12 21.64 12 23 C12.99 23.33 13.98 23.66 15 24 C14.67 24.99 14.34 25.98 14 27 C7.97321429 21.50892857 7.97321429 21.50892857 6.3125 17.1875 C5.879375 16.135625 5.44625 15.08375 5 14 C4.01 13.67 3.02 13.34 2 13 C1.05675742 8.68803391 0.51958285 4.37934119 0 0 Z " fill="#6EA9FE" transform="translate(352,599)"/>
<path d="M0 0 C2.2477975 2.05233685 3.0022242 3.00667261 4 6 C4.61875 6.61875 5.2375 7.2375 5.875 7.875 C9.21556532 11.21556532 10.77311797 14.1992399 12.0625 18.75 C12.371875 19.8225 12.68125 20.895 13 22 C13.66 22.33 14.32 22.66 15 23 C16.47182532 27.105618 17.29917911 29.82604157 16 34 C15.01070539 32.13032395 14.03399531 30.25398622 13.0625 28.375 C12.51722656 27.33085937 11.97195313 26.28671875 11.41015625 25.2109375 C10.03330283 22.07583082 9.40157784 19.38545368 9 16 C8.34 16 7.68 16 7 16 C7 14.68 7 13.36 7 12 C6.34 12 5.68 12 5 12 C4.15885829 10.56705502 3.32734313 9.12845595 2.5 7.6875 C1.80390625 6.48673828 1.80390625 6.48673828 1.09375 5.26171875 C0 3 0 3 0 0 Z " fill="#6CA8FE" transform="translate(704,328)"/>
<path d="M0 0 C0.66 0.33 1.32 0.66 2 1 C1.525625 1.4125 1.05125 1.825 0.5625 2.25 C-1.15276627 3.89078817 -1.15276627 3.89078817 -1.5 6.125 C-1.665 6.74375 -1.83 7.3625 -2 8 C-2.99 8.33 -3.98 8.66 -5 9 C-5.78734298 10.9355515 -6.56468726 12.87745466 -7.23828125 14.85546875 C-8.24864176 17.70002218 -9.59859297 20.33065327 -11 23 C-11.66 23 -12.32 23 -13 23 C-13.28875 23.969375 -13.5775 24.93875 -13.875 25.9375 C-15 29 -15 29 -17 30 C-16.34 27.03 -15.68 24.06 -15 21 C-14.01 21 -13.02 21 -12 21 C-12 19.68 -12 18.36 -12 17 C-11.34 17 -10.68 17 -10 17 C-9.67 15.35 -9.34 13.7 -9 12 C-8.34 12 -7.68 12 -7 12 C-6.9175 11.29875 -6.835 10.5975 -6.75 9.875 C-5.82123251 6.31472462 -4.19727086 3.92969448 -2 1 C-1.34 0.67 -0.68 0.34 0 0 Z " fill="#74ACFE" transform="translate(246,915)"/>
<path d="M0 0 C0.33 0 0.66 0 1 0 C1.17020077 4.05239937 1.33042311 8.10507011 1.48217773 12.15820312 C1.53490489 13.53135276 1.59016104 14.90440809 1.64819336 16.27734375 C2.00951115 24.87356524 2.30579358 33.46381885 1 42 C0.505 42.495 0.505 42.495 0 43 C-0.23701239 45.85877909 -0.42219182 48.69883297 -0.5625 51.5625 C-0.60568359 52.36880859 -0.64886719 53.17511719 -0.69335938 54.00585938 C-0.79975262 56.00368805 -0.90040888 58.0018207 -1 60 C-1.33 60 -1.66 60 -2 60 C-2.02895976 56.87501937 -2.04678483 53.7500731 -2.0625 50.625 C-2.07087891 49.73554687 -2.07925781 48.84609375 -2.08789062 47.9296875 C-2.09111328 47.07890625 -2.09433594 46.228125 -2.09765625 45.3515625 C-2.10289307 44.56604004 -2.10812988 43.78051758 -2.11352539 42.97119141 C-2 41 -2 41 -1 39 C-0.84279903 36.0851463 -0.74144346 33.19060364 -0.68359375 30.2734375 C-0.66281265 29.41062164 -0.64203156 28.54780579 -0.62062073 27.65884399 C-0.55513966 24.89764507 -0.49624702 22.13634962 -0.4375 19.375 C-0.3943134 17.50519828 -0.35069907 15.63540638 -0.30664062 13.765625 C-0.19945976 9.17718272 -0.09818825 4.58864317 0 0 Z " fill="#78B0FE" transform="translate(747,489)"/>
<path d="M0 0 C1.51400391 0.01740234 1.51400391 0.01740234 3.05859375 0.03515625 C4.07050781 0.04417969 5.08242188 0.05320312 6.125 0.0625 C6.90746094 0.07410156 7.68992187 0.08570313 8.49609375 0.09765625 C8.49609375 0.42765625 8.49609375 0.75765625 8.49609375 1.09765625 C7.78582031 1.23042969 7.07554687 1.36320313 6.34375 1.5 C5.42464844 1.67660156 4.50554688 1.85320313 3.55859375 2.03515625 C2.64207031 2.20917969 1.72554687 2.38320313 0.78125 2.5625 C-1.45680469 2.87480613 -1.45680469 2.87480613 -2.50390625 4.09765625 C-4.57475345 4.25608275 -6.65068654 4.34890047 -8.7265625 4.4140625 C-9.98662109 4.45595703 -11.24667969 4.49785156 -12.54492188 4.54101562 C-13.88541361 4.58083221 -15.22590845 4.62054439 -16.56640625 4.66015625 C-17.91082148 4.70333667 -19.25522285 4.74695081 -20.59960938 4.79101562 C-23.90092965 4.89750983 -27.20232861 4.99952085 -30.50390625 5.09765625 C-30.50390625 4.43765625 -30.50390625 3.77765625 -30.50390625 3.09765625 C-29.69123291 3.04230713 -28.87855957 2.98695801 -28.04125977 2.92993164 C-24.38262993 2.67809128 -20.7245314 2.41921986 -17.06640625 2.16015625 C-15.78701172 2.07314453 -14.50761719 1.98613281 -13.18945312 1.89648438 C-11.36704102 1.7659668 -11.36704102 1.7659668 -9.5078125 1.6328125 C-8.38189697 1.55426025 -7.25598145 1.47570801 -6.09594727 1.39477539 C-3.17507512 1.05996316 -2.9127893 0.11360333 0 0 Z " fill="#6CA7FD" transform="translate(613.50390625,678.90234375)"/>
<path d="M0 0 C0 0.66 0 1.32 0 2 C-1.11375 2.12375 -2.2275 2.2475 -3.375 2.375 C-7.03103677 2.6465813 -7.03103677 2.6465813 -9 5 C-11.73434962 5.3063859 -14.38279821 5.5113336 -17.125 5.625 C-17.87910156 5.66367187 -18.63320313 5.70234375 -19.41015625 5.7421875 C-21.27303184 5.83651031 -23.13648255 5.91934662 -25 6 C-23.30517717 3.92977668 -22.39774253 3.07735784 -19.73046875 2.55859375 C-18.47169922 2.49865234 -18.47169922 2.49865234 -17.1875 2.4375 C-11.18630632 2.01941974 -6.06978041 -0.28903716 0 0 Z " fill="#72ADFE" transform="translate(647,673)"/>
<path d="M0 0 C0.99 0.33 1.98 0.66 3 1 C0.31158141 3.25245881 -1.64641875 4.88213958 -5 6 C-5.33 6.66 -5.66 7.32 -6 8 C-9.84911128 9.81134648 -13.90644113 10.87627796 -18 12 C-18 11.01 -18 10.02 -18 9 C-17.27554687 8.67386719 -16.55109375 8.34773438 -15.8046875 8.01171875 C-7.39360633 4.83160627 -7.39360633 4.83160627 0 0 Z " fill="#71ABFE" transform="translate(452,258)"/>
<path d="M0 0 C0.66 0.33 1.32 0.66 2 1 C-2.95 5.95 -7.9 10.9 -13 16 C-13.66 15.67 -14.32 15.34 -15 15 C-14.04882866 13.8274869 -13.08882991 12.66212985 -12.125 11.5 C-11.59132813 10.8503125 -11.05765625 10.200625 -10.5078125 9.53125 C-9.76144531 8.77328125 -9.76144531 8.77328125 -9 8 C-8.34 8 -7.68 8 -7 8 C-6.896875 7.401875 -6.79375 6.80375 -6.6875 6.1875 C-5.89363064 3.66155205 -5.04427591 2.65114593 -3 1 C-2.01 0.67 -1.02 0.34 0 0 Z " fill="#77B1FE" transform="translate(711,633)"/>
<path d="M0 0 C2.9375 0.8125 2.9375 0.8125 6 2 C6.33 2.99 6.66 3.98 7 5 C8.65 5.33 10.3 5.66 12 6 C12.061875 6.598125 12.12375 7.19625 12.1875 7.8125 C13.3236757 10.87143458 15.17330142 11.55041099 18 13 C17.67 13.66 17.34 14.32 17 15 C12.2687747 13.50592885 12.2687747 13.50592885 10.9375 11 C10.628125 10.34 10.31875 9.68 10 9 C7.9664052 7.73195434 7.9664052 7.73195434 6 7 C6 6.34 6 5.68 6 5 C5.01 4.67 4.02 4.34 3 4 C3 3.34 3 2.68 3 2 C2.01 1.67 1.02 1.34 0 1 C0 0.67 0 0.34 0 0 Z " fill="#70A9FE" transform="translate(654,274)"/>
<path d="M0 0 C0.33 0.66 0.66 1.32 1 2 C-0.0828125 2.804375 -0.0828125 2.804375 -1.1875 3.625 C-4.11543424 5.94983077 -4.11543424 5.94983077 -6.5 9.0625 C-9 12 -9 12 -11.625 13.5625 C-14.49302937 15.29841251 -15.37413564 17.1177859 -17 20 C-17.99 20.66 -18.98 21.32 -20 22 C-17.23607018 16.0114854 -14.20992814 11.9107465 -8.7421875 8.296875 C-5.99320739 6.250549 -4.12672675 3.67359934 -2 1 C-1.34 0.67 -0.68 0.34 0 0 Z " fill="#6AA8FE" transform="translate(410,289)"/>
<path d="M0 0 C0.66 0 1.32 0 2 0 C2.66 7.59 3.32 15.18 4 23 C1 21 1 21 0.56762695 18.84521484 C0.54144287 17.97590332 0.51525879 17.1065918 0.48828125 16.2109375 C0.45283203 15.26992188 0.41738281 14.32890625 0.38085938 13.359375 C0.35830078 12.37453125 0.33574219 11.3896875 0.3125 10.375 C0.27833984 9.38242187 0.24417969 8.38984375 0.20898438 7.3671875 C0.12634343 4.91157094 0.05724873 2.45631859 0 0 Z " fill="#6DA9FE" transform="translate(740,430)"/>
<path d="M0 0 C0.5625 1.9375 0.5625 1.9375 1 4 C0.67 4.33 0.34 4.66 0 5 C-0.28593333 8.5900518 -0.44910171 12.18014845 -0.62109375 15.77734375 C-1 19 -1 19 -3 21 C-3.71927295 23.31765729 -4.3909893 25.65095874 -5 28 C-6.26026798 25.47946405 -5.91874445 24.1457902 -5.5625 21.375 C-5.46066406 20.55773437 -5.35882812 19.74046875 -5.25390625 18.8984375 C-5.17011719 18.27195312 -5.08632813 17.64546875 -5 17 C-4.34 17 -3.68 17 -3 17 C-2.95101562 16.10796875 -2.90203125 15.2159375 -2.8515625 14.296875 C-2.77679687 13.12640625 -2.70203125 11.9559375 -2.625 10.75 C-2.55539062 9.58984375 -2.48578125 8.4296875 -2.4140625 7.234375 C-2.03751692 4.29305666 -1.5225877 2.50050989 0 0 Z " fill="#75ADFE" transform="translate(744,551)"/>
<path d="M0 0 C6.20451137 1.06363052 10.9660393 3.16981251 16 7 C17.875 9.75 17.875 9.75 19 12 C16.5625 11.1875 16.5625 11.1875 14 10 C13.67 9.01 13.34 8.02 13 7 C10.92985693 6.08710716 10.92985693 6.08710716 8.5 5.5 C6.03125 4.84375 6.03125 4.84375 4 4 C3.67 3.01 3.34 2.02 3 1 C2.01 0.67 1.02 0.34 0 0 Z " fill="#6CA6FC" transform="translate(633,262)"/>
<path d="M0 0 C0.33 0 0.66 0 1 0 C1.125 7.75 1.125 7.75 0 10 C-0.66 10 -1.32 10 -2 10 C-1.938125 10.928125 -1.87625 11.85625 -1.8125 12.8125 C-2 16 -2 16 -3.51171875 17.69921875 C-4.00285156 18.12847656 -4.49398437 18.55773438 -5 19 C-4.88557539 17.39504433 -4.75805306 15.79101881 -4.625 14.1875 C-4.55539063 13.29417969 -4.48578125 12.40085937 -4.4140625 11.48046875 C-4 9 -4 9 -2 6 C-1.29835358 4.01200182 -0.62627128 2.01301483 0 0 Z " fill="#73AEFE" transform="translate(200,1011)"/>
<path d="M0 0 C0 2 0 2 -1.8125 3.9375 C-7.56526892 7.65987989 -14.34099292 8.70921421 -21 10 C-20.01 9.67 -19.02 9.34 -18 9 C-18 8.34 -18 7.68 -18 7 C-17.22914063 6.81824219 -16.45828125 6.63648438 -15.6640625 6.44921875 C-14.15972656 6.07216797 -14.15972656 6.07216797 -12.625 5.6875 C-11.62726562 5.44386719 -10.62953125 5.20023438 -9.6015625 4.94921875 C-6.6915014 4.17806142 -6.6915014 4.17806142 -5 1 C-2 0 -2 0 0 0 Z " fill="#70ABFE" transform="translate(678,659)"/>
<path d="M0 0 C2.62386487 3.06117568 3 3.73173127 3 8 C3.99 8 4.98 8 6 8 C6.53190541 9.43344 7.05015258 10.87195367 7.5625 12.3125 C7.85253906 13.11300781 8.14257812 13.91351562 8.44140625 14.73828125 C9 17 9 17 8 20 C5.95236814 16.74240386 4.39611979 13.57755697 3 10 C2.46375 8.989375 1.9275 7.97875 1.375 6.9375 C0 4 0 4 0 0 Z " fill="#6DA8FE" transform="translate(855,947)"/>
<path d="M0 0 C6.58565911 5.85391921 9.17843604 12.49936816 11 21 C7.36839382 19.18419691 6.40698827 14.65073169 5 11 C4.25 7.9375 4.25 7.9375 4 6 C3.34 6 2.68 6 2 6 C1.34 4.02 0.68 2.04 0 0 Z " fill="#6EABFE" transform="translate(843,926)"/>
<path d="M0 0 C1.89646998 0.11493757 3.79218332 0.24239642 5.6875 0.375 C6.74324219 0.44460937 7.79898438 0.51421875 8.88671875 0.5859375 C11.92430627 0.98993283 14.20996667 1.77697169 17 3 C18.65919896 3.36871088 20.3247643 3.71281674 22 4 C22 4.33 22 4.66 22 5 C19.60351168 4.76485396 17.20766389 4.52570591 14.8125 4.27734375 C13.02293733 4.10087299 11.23114494 3.94491435 9.4375 3.81640625 C8.65375 3.75324219 7.87 3.69007813 7.0625 3.625 C6.35222656 3.57601562 5.64195312 3.52703125 4.91015625 3.4765625 C2.53449845 2.8838626 1.56666867 1.83678395 0 0 Z " fill="#7AB1FF" transform="translate(583,244)"/>
<path d="M0 0 C0.66 0.99 1.32 1.98 2 3 C3.99180409 4.01622658 5.99152635 5.01712992 8 6 C8.33 6.66 8.66 7.32 9 8 C11.01669827 9.13350534 11.01669827 9.13350534 13 10 C10.25 10.25 10.25 10.25 7 10 C5 8.1875 5 8.1875 3 6 C1.03120677 4.93988057 -0.96435867 3.92529151 -3 3 C-3 2.34 -3 1.68 -3 1 C-2.01 0.67 -1.02 0.34 0 0 Z " fill="#6DAAFE" transform="translate(715,797)"/>
<path d="M0 0 C1.48555383 0.92734572 2.96327506 1.86724813 4.4375 2.8125 C5.26121094 3.33457031 6.08492188 3.85664062 6.93359375 4.39453125 C9 6 9 6 10 9 C12.00016466 10.20882096 12.00016466 10.20882096 14 11 C14 11.66 14 12.32 14 13 C11.0625 12.25 11.0625 12.25 8 11 C7.375 9 7.375 9 7 7 C5.11683841 5.89163577 5.11683841 5.89163577 3 5 C1.25 3.5 1.25 3.5 0 2 C0 1.34 0 0.68 0 0 Z " fill="#6AA7FD" transform="translate(376,637)"/>
<path d="M0 0 C0 3.53143992 -0.84883829 6.24690562 -1.875 9.625 C-2.22304687 10.79289063 -2.57109375 11.96078125 -2.9296875 13.1640625 C-4 16 -4 16 -6 17 C-3.54394299 3.54394299 -3.54394299 3.54394299 0 0 Z " fill="#77AEFE" transform="translate(210,985)"/>
<path d="M0 0 C0.33 0.99 0.66 1.98 1 3 C1.99 3.33 2.98 3.66 4 4 C5.47694566 7.91390601 6.60226148 10.99434629 5 15 C3.5393715 12.35261084 3 11.10551666 3 8 C2.34 8 1.68 8 1 8 C0.67 5.36 0.34 2.72 0 0 Z " fill="#69A8FE" transform="translate(346,584)"/>
<path d="M0 0 C5.23272633 1.63958758 10.15196636 3.38952035 15 6 C11.37789769 7.31712811 9.32755223 6.68301982 5.8125 5.25 C4.93207031 4.90453125 4.05164063 4.5590625 3.14453125 4.203125 C1 3 1 3 0 0 Z " fill="#70ACFE" transform="translate(407,661)"/>
<path d="M0 0 C2 3 2 3 1.609375 5.0859375 C1.32578125 5.84132813 1.0421875 6.59671875 0.75 7.375 C0.31494141 8.56029297 0.31494141 8.56029297 -0.12890625 9.76953125 C-0.56009766 10.87361328 -0.56009766 10.87361328 -1 12 C-1.391875 13.010625 -1.78375 14.02125 -2.1875 15.0625 C-2.5896875 16.0215625 -2.5896875 16.0215625 -3 17 C-3.33 17 -3.66 17 -4 17 C-3.35729017 11.0870696 -1.80996216 5.65755469 0 0 Z " fill="#76B0FE" transform="translate(737,579)"/>
<path d="M0 0 C4.455 0.99 4.455 0.99 9 2 C9 2.66 9 3.32 9 4 C10.2065625 4.185625 10.2065625 4.185625 11.4375 4.375 C12.7059375 4.684375 12.7059375 4.684375 14 5 C14.33 5.66 14.66 6.32 15 7 C10 5.33333333 5 3.66666667 0 2 C0 1.34 0 0.68 0 0 Z " fill="#71ABFE" transform="translate(681,782)"/>
<path d="M0 0 C0 3.08086951 -0.4446885 4.40392756 -1.75 7.125 C-2.23726562 8.18074219 -2.23726562 8.18074219 -2.734375 9.2578125 C-4 11 -4 11 -6.140625 11.7421875 C-6.75421875 11.82726562 -7.3678125 11.91234375 -8 12 C-7.1875 9.5625 -7.1875 9.5625 -6 7 C-5.01 6.67 -4.02 6.34 -3 6 C-2.40929986 4.05396726 -2.40929986 4.05396726 -2 2 C-1.34 1.34 -0.68 0.68 0 0 Z " fill="#60A5FE" transform="translate(717,622)"/>
<path d="M0 0 C3.01614813 1.1170919 4.64508669 2.6125776 6.625 5.0625 C8.67119397 8.00824713 8.67119397 8.00824713 11 9 C10.67 9.99 10.34 10.98 10 12 C5.22864787 8.42148591 2.70923672 5.31427203 0 0 Z " fill="#69A6FD" transform="translate(672,289)"/>
<path d="M0 0 C4.0042343 3.49087093 5.62671065 5.64951939 6 11 C5.67 10.34 5.34 9.68 5 9 C4.01 8.67 3.02 8.34 2 8 C1.26953125 6.15234375 1.26953125 6.15234375 0.8125 3.9375 C0.65394531 3.20402344 0.49539063 2.47054687 0.33203125 1.71484375 C0.22246094 1.14894531 0.11289062 0.58304688 0 0 Z " fill="#6BAAFD" transform="translate(869,980)"/>
<path d="M0 0 C2.97 0 5.94 0 9 0 C8.67 0.66 8.34 1.32 8 2 C6.9275 2.144375 5.855 2.28875 4.75 2.4375 C0.98512907 3.00223064 -0.8254845 4.0600183 -4 6 C-4.99 5.67 -5.98 5.34 -7 5 C-5.5459375 4.5978125 -5.5459375 4.5978125 -4.0625 4.1875 C-3.051875 3.795625 -2.04125 3.40375 -1 3 C-0.67 2.01 -0.34 1.02 0 0 Z " fill="#7AB1FE" transform="translate(462,252)"/>
<path d="M0 0 C2.31309705 0.11341637 4.62550185 0.24103807 6.9375 0.375 C8.86916016 0.47941406 8.86916016 0.47941406 10.83984375 0.5859375 C12.40412109 0.79089844 12.40412109 0.79089844 14 1 C14.33 1.66 14.66 2.32 15 3 C11.28233332 4.23922223 9.56110463 3.57018942 5.8125 2.5625 C4.72582031 2.27503906 3.63914062 1.98757813 2.51953125 1.69140625 C1.68808594 1.46324219 0.85664063 1.23507812 0 1 C0 0.67 0 0.34 0 0 Z " fill="#74AFFE" transform="translate(493,683)"/>
<path d="M0 0 C0.66 0 1.32 0 2 0 C1.625 2.9375 1.625 2.9375 1 6 C0.01 6.495 0.01 6.495 -1 7 C-1.65555119 9.52733235 -1.65555119 9.52733235 -2 12 C-2.66 12 -3.32 12 -4 12 C-2.87204037 7.89100419 -1.66489182 3.92438786 0 0 Z " fill="#71A6FC" transform="translate(227,945)"/>
<path d="M0 0 C2.1640625 0.36328125 2.1640625 0.36328125 4 1 C3.43410156 1.40992188 2.86820312 1.81984375 2.28515625 2.2421875 C1.55167969 2.78101563 0.81820313 3.31984375 0.0625 3.875 C-0.66839844 4.40867187 -1.39929688 4.94234375 -2.15234375 5.4921875 C-4.11098235 6.88012104 -4.11098235 6.88012104 -5 9 C-5.66 9 -6.32 9 -7 9 C-5.4404735 5.17207132 -3.16368164 2.63640136 0 0 Z " fill="#77ADFE" transform="translate(313,836)"/>
<path d="M0 0 C4.38889325 0.66498383 7.9811485 2.18757677 12 4 C8.69564916 5.12377697 6.9493138 4.89554742 3.75 3.5625 C3.04359375 3.27503906 2.3371875 2.98757813 1.609375 2.69140625 C1.07828125 2.46324219 0.5471875 2.23507812 0 2 C0 1.34 0 0.68 0 0 Z " fill="#6CA9FE" transform="translate(650,770)"/>
<path d="M0 0 C-5.02649303 1.57077907 -9.76119922 2.44854729 -15 3 C-13.26734767 0.87278327 -12.30500974 0.06920805 -9.58984375 -0.546875 C-8.71457031 -0.61390625 -7.83929687 -0.6809375 -6.9375 -0.75 C-5.62072266 -0.86601563 -5.62072266 -0.86601563 -4.27734375 -0.984375 C-2 -1 -2 -1 0 0 Z " fill="#63A3FD" transform="translate(637,676)"/>
<path d="M0 0 C3.63559661 3.43361902 6.36113346 6.7973607 9 11 C4.55092795 9.51697598 2.25420608 5.91714499 0 2 C0 1.34 0 0.68 0 0 Z " fill="#6DA8FD" transform="translate(367,626)"/>
<path d="M0 0 C1.90389849 2.85584773 2.69462177 4.9311762 3.625 8.1875 C4.01558594 9.53908203 4.01558594 9.53908203 4.4140625 10.91796875 C4.60742188 11.60503906 4.80078125 12.29210937 5 13 C1.59243919 10.72829279 1.1304589 9.82616857 0 6 C-0.125 2.6875 -0.125 2.6875 0 0 Z " fill="#75AEFE" transform="translate(875,991)"/>
<path d="M0 0 C1 4 1 4 1 4 Z M-3 4 C-2.01 4.33 -1.02 4.66 0 5 C-1.65 7.64 -3.3 10.28 -5 13 C-5.33 12.34 -5.66 11.68 -6 11 C-5.06421005 8.64018187 -4.06652192 6.30368736 -3 4 Z " fill="#619CFB" transform="translate(244,919)"/>
<path d="M0 0 C-1.2363168 0.89422914 -2.48971562 1.76487891 -3.75 2.625 C-4.44609375 3.11226562 -5.1421875 3.59953125 -5.859375 4.1015625 C-8 5 -8 5 -10.265625 4.1484375 C-10.83796875 3.76945313 -11.4103125 3.39046875 -12 3 C-10.68 3 -9.36 3 -8 3 C-8 2.34 -8 1.68 -8 1 C-3.375 -1.125 -3.375 -1.125 0 0 Z " fill="#609DFD" transform="translate(419,777)"/>
<path d="M0 0 C0.8125 1.625 0.8125 1.625 1 4 C-0.46818136 6.24609835 -2.15852858 8.02378677 -4 10 C-4 5.80285329 -2.97903734 2.97903734 0 0 Z " fill="#67A2FC" transform="translate(389,311)"/>
<path d="M0 0 C3.81014932 1.27004977 4.17627457 2.51113397 6 6 C6.69822617 7.65369357 7.37498605 9.31727014 8 11 C6.33333333 9.33333333 4.66666667 7.66666667 3 6 C2.401875 5.46375 1.80375 4.9275 1.1875 4.375 C0 3 0 3 0 0 Z " fill="#67A9FE" transform="translate(687,304)"/>
<path d="M0 0 C0 0.66 0 1.32 0 2 C-5.29411765 6 -5.29411765 6 -9 6 C-3.15384615 0 -3.15384615 0 0 0 Z " fill="#61A2FE" transform="translate(352,810)"/>
<path d="M0 0 C6.625 0.75 6.625 0.75 10 3 C3.47692308 3.36923077 3.47692308 3.36923077 1.0625 1.5 C0.5365625 0.7575 0.5365625 0.7575 0 0 Z " fill="#72A8FE" transform="translate(583,244)"/>
</svg>
